<mxfile host="app.diagrams.net" agent="Mozilla/5.0 (Windows NT 10.0; Win64; x64) AppleWebKit/537.36 (KHTML, like Gecko) Chrome/131.0.0.0 Safari/537.36" version="26.0.4">
  <diagram name="Page-1" id="X-CGd8RmOUdNiGuNMknw">
    <mxGraphModel dx="704" dy="405" grid="1" gridSize="10" guides="1" tooltips="1" connect="1" arrows="1" fold="1" page="1" pageScale="1" pageWidth="827" pageHeight="1169" background="#FFF4C3" math="0" shadow="0">
      <root>
        <mxCell id="0" />
        <mxCell id="1" parent="0" />
        <mxCell id="qQXRW3p8ppKCnYw3b7h6-1" value="" style="aspect=fixed;sketch=0;html=1;dashed=0;whitespace=wrap;verticalLabelPosition=bottom;verticalAlign=top;fillColor=#2875E2;strokeColor=#ffffff;points=[[0.005,0.63,0],[0.1,0.2,0],[0.9,0.2,0],[0.5,0,0],[0.995,0.63,0],[0.72,0.99,0],[0.5,1,0],[0.28,0.99,0]];shape=mxgraph.kubernetes.icon2;kubernetesLabel=1;prIcon=api" parent="1" vertex="1">
          <mxGeometry x="364" y="70" width="50" height="48" as="geometry" />
        </mxCell>
        <mxCell id="qQXRW3p8ppKCnYw3b7h6-17" value="" style="edgeStyle=orthogonalEdgeStyle;curved=1;rounded=0;orthogonalLoop=1;jettySize=auto;html=1;flowAnimation=1;" parent="1" source="qQXRW3p8ppKCnYw3b7h6-8" target="qQXRW3p8ppKCnYw3b7h6-16" edge="1">
          <mxGeometry relative="1" as="geometry" />
        </mxCell>
        <mxCell id="qQXRW3p8ppKCnYw3b7h6-8" value="" style="sketch=0;points=[[0,0,0],[0.25,0,0],[0.5,0,0],[0.75,0,0],[1,0,0],[0,1,0],[0.25,1,0],[0.5,1,0],[0.75,1,0],[1,1,0],[0,0.25,0],[0,0.5,0],[0,0.75,0],[1,0.25,0],[1,0.5,0],[1,0.75,0]];outlineConnect=0;fontColor=#232F3E;fillColor=#ED7100;strokeColor=#ffffff;dashed=0;verticalLabelPosition=bottom;verticalAlign=top;align=center;html=1;fontSize=12;fontStyle=0;aspect=fixed;shape=mxgraph.aws4.resourceIcon;resIcon=mxgraph.aws4.lambda;" parent="1" vertex="1">
          <mxGeometry x="290" y="190" width="48" height="48" as="geometry" />
        </mxCell>
        <mxCell id="qQXRW3p8ppKCnYw3b7h6-12" value="" style="edgeStyle=orthogonalEdgeStyle;rounded=0;orthogonalLoop=1;jettySize=auto;html=1;flowAnimation=1;" parent="1" source="qQXRW3p8ppKCnYw3b7h6-10" target="qQXRW3p8ppKCnYw3b7h6-8" edge="1">
          <mxGeometry relative="1" as="geometry" />
        </mxCell>
        <mxCell id="qQXRW3p8ppKCnYw3b7h6-10" value="" style="sketch=0;outlineConnect=0;fontColor=#232F3E;gradientColor=none;fillColor=#E7157B;strokeColor=none;dashed=0;verticalLabelPosition=bottom;verticalAlign=top;align=center;html=1;fontSize=12;fontStyle=0;aspect=fixed;pointerEvents=1;shape=mxgraph.aws4.eventbridge_scheduler;" parent="1" vertex="1">
          <mxGeometry x="160" y="185" width="58" height="58" as="geometry" />
        </mxCell>
        <mxCell id="qQXRW3p8ppKCnYw3b7h6-13" style="edgeStyle=orthogonalEdgeStyle;curved=1;rounded=0;orthogonalLoop=1;jettySize=auto;html=1;entryX=0.75;entryY=0;entryDx=0;entryDy=0;entryPerimeter=0;flowAnimation=1;" parent="1" source="qQXRW3p8ppKCnYw3b7h6-1" target="qQXRW3p8ppKCnYw3b7h6-8" edge="1">
          <mxGeometry relative="1" as="geometry" />
        </mxCell>
        <mxCell id="qQXRW3p8ppKCnYw3b7h6-15" style="edgeStyle=orthogonalEdgeStyle;curved=1;rounded=0;orthogonalLoop=1;jettySize=auto;html=1;exitX=0.25;exitY=0;exitDx=0;exitDy=0;exitPerimeter=0;entryX=-0.009;entryY=0.176;entryDx=0;entryDy=0;entryPerimeter=0;flowAnimation=1;" parent="1" source="qQXRW3p8ppKCnYw3b7h6-8" target="qQXRW3p8ppKCnYw3b7h6-1" edge="1">
          <mxGeometry relative="1" as="geometry" />
        </mxCell>
        <mxCell id="qQXRW3p8ppKCnYw3b7h6-16" value="" style="sketch=0;points=[[0,0,0],[0.25,0,0],[0.5,0,0],[0.75,0,0],[1,0,0],[0,1,0],[0.25,1,0],[0.5,1,0],[0.75,1,0],[1,1,0],[0,0.25,0],[0,0.5,0],[0,0.75,0],[1,0.25,0],[1,0.5,0],[1,0.75,0]];outlineConnect=0;fontColor=#232F3E;fillColor=#E7157B;strokeColor=#ffffff;dashed=0;verticalLabelPosition=bottom;verticalAlign=top;align=center;html=1;fontSize=12;fontStyle=0;aspect=fixed;shape=mxgraph.aws4.resourceIcon;resIcon=mxgraph.aws4.sns;" parent="1" vertex="1">
          <mxGeometry x="400" y="187.5" width="53" height="53" as="geometry" />
        </mxCell>
        <mxCell id="qQXRW3p8ppKCnYw3b7h6-18" value="" style="sketch=0;outlineConnect=0;fontColor=#232F3E;gradientColor=none;fillColor=#DD344C;strokeColor=none;dashed=0;verticalLabelPosition=bottom;verticalAlign=top;align=center;html=1;fontSize=12;fontStyle=0;aspect=fixed;shape=mxgraph.aws4.email;" parent="1" vertex="1">
          <mxGeometry x="540" y="130" width="55.39" height="49" as="geometry" />
        </mxCell>
        <mxCell id="qQXRW3p8ppKCnYw3b7h6-19" value="" style="points=[];aspect=fixed;html=1;align=center;shadow=0;dashed=0;fillColor=#FF6A00;strokeColor=none;shape=mxgraph.alibaba_cloud.sms_short_message_service;" parent="1" vertex="1">
          <mxGeometry x="542.8000000000001" y="243" width="49.8" height="45.6" as="geometry" />
        </mxCell>
        <mxCell id="qQXRW3p8ppKCnYw3b7h6-39" style="edgeStyle=elbowEdgeStyle;rounded=0;orthogonalLoop=1;jettySize=auto;elbow=vertical;html=1;exitX=1;exitY=1;exitDx=0;exitDy=0;exitPerimeter=0;flowAnimation=1;fontFamily=Comic Sans MS;" parent="1" source="qQXRW3p8ppKCnYw3b7h6-38" edge="1">
          <mxGeometry relative="1" as="geometry">
            <mxPoint x="540" y="260.2352941176471" as="targetPoint" />
          </mxGeometry>
        </mxCell>
        <mxCell id="qQXRW3p8ppKCnYw3b7h6-40" style="edgeStyle=elbowEdgeStyle;rounded=0;orthogonalLoop=1;jettySize=auto;elbow=vertical;html=1;exitX=1;exitY=0;exitDx=0;exitDy=0;exitPerimeter=0;flowAnimation=1;" parent="1" source="qQXRW3p8ppKCnYw3b7h6-38" target="qQXRW3p8ppKCnYw3b7h6-18" edge="1">
          <mxGeometry relative="1" as="geometry" />
        </mxCell>
        <mxCell id="qQXRW3p8ppKCnYw3b7h6-38" value="" style="strokeWidth=2;html=1;shape=mxgraph.flowchart.annotation_2;align=left;labelPosition=right;pointerEvents=1;" parent="1" vertex="1">
          <mxGeometry x="453" y="160" width="50" height="100" as="geometry" />
        </mxCell>
        <mxCell id="qQXRW3p8ppKCnYw3b7h6-41" value="&lt;font style=&quot;line-height: 40%;&quot; face=&quot;Comic Sans MS&quot;&gt;&lt;span style=&quot;font-size: 10px; line-height: 40%;&quot;&gt;NBA API&lt;/span&gt;&lt;/font&gt;&lt;div style=&quot;line-height: 40%;&quot;&gt;&lt;font face=&quot;Comic Sans MS&quot;&gt;&lt;span style=&quot;font-size: 10px; line-height: 40%;&quot;&gt;&lt;i&gt;(SportsData.io)&lt;/i&gt;&lt;/span&gt;&lt;/font&gt;&lt;/div&gt;" style="text;html=1;align=center;verticalAlign=middle;resizable=0;points=[];autosize=1;strokeColor=none;fillColor=none;" parent="1" vertex="1">
          <mxGeometry x="339" y="115" width="100" height="30" as="geometry" />
        </mxCell>
        <mxCell id="qQXRW3p8ppKCnYw3b7h6-42" value="&lt;font style=&quot;font-size: 10px;&quot; face=&quot;Comic Sans MS&quot;&gt;API request&lt;/font&gt;" style="text;html=1;align=center;verticalAlign=middle;resizable=0;points=[];autosize=1;strokeColor=none;fillColor=none;" parent="1" vertex="1">
          <mxGeometry x="245" y="79" width="80" height="30" as="geometry" />
        </mxCell>
        <mxCell id="qQXRW3p8ppKCnYw3b7h6-43" value="&lt;font style=&quot;font-size: 10px;&quot; face=&quot;Comic Sans MS&quot;&gt;API response&lt;/font&gt;" style="text;html=1;align=center;verticalAlign=middle;resizable=0;points=[];autosize=1;strokeColor=none;fillColor=none;" parent="1" vertex="1">
          <mxGeometry x="320" y="149" width="90" height="30" as="geometry" />
        </mxCell>
        <mxCell id="qQXRW3p8ppKCnYw3b7h6-44" value="&lt;font style=&quot;font-size: 10px;&quot; face=&quot;Comic Sans MS&quot;&gt;AWS Lambda&lt;/font&gt;" style="text;html=1;align=center;verticalAlign=middle;resizable=0;points=[];autosize=1;strokeColor=none;fillColor=none;" parent="1" vertex="1">
          <mxGeometry x="269" y="238" width="90" height="30" as="geometry" />
        </mxCell>
        <mxCell id="qQXRW3p8ppKCnYw3b7h6-47" value="&lt;font style=&quot;font-size: 10px;&quot; face=&quot;Comic Sans MS&quot;&gt;Amazon EventBridge&lt;/font&gt;" style="text;html=1;align=center;verticalAlign=middle;resizable=0;points=[];autosize=1;strokeColor=none;fillColor=none;" parent="1" vertex="1">
          <mxGeometry x="140" y="243" width="120" height="30" as="geometry" />
        </mxCell>
        <mxCell id="qQXRW3p8ppKCnYw3b7h6-48" value="&lt;font style=&quot;font-size: 10px;&quot; face=&quot;Comic Sans MS&quot;&gt;Amazon SNS&lt;/font&gt;" style="text;html=1;align=center;verticalAlign=middle;resizable=0;points=[];autosize=1;strokeColor=none;fillColor=none;" parent="1" vertex="1">
          <mxGeometry x="386.5" y="238" width="80" height="30" as="geometry" />
        </mxCell>
      </root>
    </mxGraphModel>
  </diagram>
</mxfile>
